<?xml version="1.0" encoding="UTF-8"?>
<!DOCTYPE svg PUBLIC "-//W3C//DTD SVG 1.1//EN" "http://www.w3.org/Graphics/SVG/1.1/DTD/svg11.dtd">
<svg xmlns="http://www.w3.org/2000/svg" version="1.1" width="512px" height="512px" style="shape-rendering:geometricPrecision; text-rendering:geometricPrecision; image-rendering:optimizeQuality; fill-rule:evenodd; clip-rule:evenodd" xmlns:xlink="http://www.w3.org/1999/xlink">
<g><path style="opacity:0.976" fill="#23395b" d="M 41.5,-0.5 C 184.167,-0.5 326.833,-0.5 469.5,-0.5C 473.811,1.6467 476.978,4.98004 479,9.5C 479.667,15.5 479.667,21.5 479,27.5C 466.693,169.542 454.026,311.542 441,453.5C 438.668,459.164 434.501,462.664 428.5,464C 372.633,479.572 316.967,495.406 261.5,511.5C 257.5,511.5 253.5,511.5 249.5,511.5C 194.033,495.406 138.367,479.572 82.5,464C 76.4991,462.664 72.3324,459.164 70,453.5C 56.8539,311.559 44.1873,169.559 32,27.5C 31.3333,21.5 31.3333,15.5 32,9.5C 34.0223,4.98004 37.189,1.6467 41.5,-0.5 Z M 65.5,31.5 C 192.167,31.5 318.833,31.5 445.5,31.5C 433.886,165.871 421.886,300.204 409.5,434.5C 358.167,449.167 306.833,463.833 255.5,478.5C 204.167,463.833 152.833,449.167 101.5,434.5C 89.0196,300.216 77.0196,165.883 65.5,31.5 Z"/></g>
<g><path style="opacity:0.981" fill="#23395b" d="M 137.5,95.5 C 216.167,95.3333 294.834,95.5 373.5,96C 382.01,100.189 385.344,107.022 383.5,116.5C 378.488,195.176 373.322,273.843 368,352.5C 367.553,359.566 364.053,364.399 357.5,367C 325.5,377.667 293.5,388.333 261.5,399C 257.5,399.667 253.5,399.667 249.5,399C 216.018,388.062 182.685,376.728 149.5,365C 146.894,363.062 145.061,360.562 144,357.5C 143.333,342.833 143.333,328.167 144,313.5C 148.473,304.518 155.64,301.351 165.5,304C 170,305.833 173.167,309 175,313.5C 175.168,322.186 175.668,330.852 176.5,339.5C 201.796,348.099 227.13,356.599 252.5,365C 254.5,365.667 256.5,365.667 258.5,365C 283.87,356.599 309.204,348.099 334.5,339.5C 335.281,338.271 335.781,336.938 336,335.5C 337.723,308.817 339.557,282.15 341.5,255.5C 274.833,255.667 208.166,255.5 141.5,255C 130.853,248.915 128.353,240.415 134,229.5C 135.938,226.894 138.438,225.061 141.5,224C 208.833,223.5 276.166,223.333 343.5,223.5C 345.721,191.515 347.721,159.515 349.5,127.5C 278.833,127.667 208.166,127.5 137.5,127C 130.513,124.193 127.18,119.027 127.5,111.5C 127.302,103.885 130.635,98.5513 137.5,95.5 Z"/></g>
</svg>
