<?xml version="1.0" encoding="UTF-8"?>
<!DOCTYPE svg PUBLIC "-//W3C//DTD SVG 1.1//EN" "http://www.w3.org/Graphics/SVG/1.1/DTD/svg11.dtd">
<svg xmlns="http://www.w3.org/2000/svg" version="1.1" width="512px" height="512px" style="shape-rendering:geometricPrecision; text-rendering:geometricPrecision; image-rendering:optimizeQuality; fill-rule:evenodd; clip-rule:evenodd" xmlns:xlink="http://www.w3.org/1999/xlink">
<g><path style="opacity:0.976" fill="#23395b" d="M 41.5,-0.5 C 184.167,-0.5 326.833,-0.5 469.5,-0.5C 473.811,1.6467 476.978,4.98004 479,9.5C 479.667,15.5 479.667,21.5 479,27.5C 466.693,169.542 454.026,311.542 441,453.5C 438.668,459.164 434.501,462.664 428.5,464C 372.633,479.572 316.967,495.406 261.5,511.5C 257.5,511.5 253.5,511.5 249.5,511.5C 194.033,495.406 138.367,479.572 82.5,464C 76.4991,462.664 72.3324,459.164 70,453.5C 56.8539,311.559 44.1873,169.559 32,27.5C 31.3333,21.5 31.3333,15.5 32,9.5C 34.0223,4.98004 37.189,1.6467 41.5,-0.5 Z M 65.5,31.5 C 192.167,31.5 318.833,31.5 445.5,31.5C 433.886,165.871 421.886,300.204 409.5,434.5C 358.167,449.167 306.833,463.833 255.5,478.5C 204.167,463.833 152.833,449.167 101.5,434.5C 89.0196,300.216 77.0196,165.883 65.5,31.5 Z"/></g>
<g><path style="opacity:0.986" fill="#23395b" d="M 137.5,95.5 C 216.167,95.3333 294.834,95.5 373.5,96C 382.482,100.473 385.649,107.64 383,117.5C 381.167,122 378,125.167 373.5,127C 302.167,127.5 230.834,127.667 159.5,127.5C 159.5,159.5 159.5,191.5 159.5,223.5C 230.834,223.333 302.167,223.5 373.5,224C 380.791,227.079 384.124,232.579 383.5,240.5C 378.644,280.327 372.81,319.994 366,359.5C 364.859,361.609 363.359,363.442 361.5,365C 326.556,377.815 291.222,389.315 255.5,399.5C 219.778,389.315 184.444,377.815 149.5,365C 146.894,363.062 145.061,360.562 144,357.5C 143.333,337.5 143.333,317.5 144,297.5C 148.473,288.518 155.64,285.351 165.5,288C 170,289.833 173.167,293 175,297.5C 175.167,311.512 175.667,325.512 176.5,339.5C 201.796,348.099 227.13,356.599 252.5,365C 254.5,365.667 256.5,365.667 258.5,365C 284.425,356.191 310.425,347.691 336.5,339.5C 340.593,311.516 344.593,283.516 348.5,255.5C 278.166,255.667 207.833,255.5 137.5,255C 133,253.167 129.833,250 128,245.5C 127.333,198.833 127.333,152.167 128,105.5C 130.022,100.98 133.189,97.6467 137.5,95.5 Z"/></g>
</svg>
