<?xml version="1.0" encoding="UTF-8"?>
<!DOCTYPE svg PUBLIC "-//W3C//DTD SVG 1.1//EN" "http://www.w3.org/Graphics/SVG/1.1/DTD/svg11.dtd">
<svg xmlns="http://www.w3.org/2000/svg" version="1.1" width="462px" height="462px" style="shape-rendering:geometricPrecision; text-rendering:geometricPrecision; image-rendering:optimizeQuality; fill-rule:evenodd; clip-rule:evenodd" xmlns:xlink="http://www.w3.org/1999/xlink">
<g><path style="opacity:1" fill="#23395b" d="M 446.5,22.5 C 447.757,25.4274 449.757,27.7607 452.5,29.5C 452.427,31.0269 453.094,32.0269 454.5,32.5C 455.025,36.533 456.358,40.1996 458.5,43.5C 458.482,53.1802 458.148,62.8468 457.5,72.5C 456.778,72.9175 456.278,73.5842 456,74.5C 455.501,78.1516 455.335,81.8183 455.5,85.5C 454.778,85.9175 454.278,86.5842 454,87.5C 453.501,91.1516 453.335,94.8183 453.5,98.5C 452.732,99.2625 452.232,100.263 452,101.5C 451.502,104.817 451.335,108.15 451.5,111.5C 451.562,116.076 450.895,120.409 449.5,124.5C 448.732,125.263 448.232,126.263 448,127.5C 447.502,130.817 447.335,134.15 447.5,137.5C 447.802,140.059 447.468,142.393 446.5,144.5C 445.732,145.263 445.232,146.263 445,147.5C 444.502,150.817 444.335,154.15 444.5,157.5C 440.562,188.075 435.895,218.408 430.5,248.5C 429.732,249.263 429.232,250.263 429,251.5C 428.502,254.817 428.335,258.15 428.5,261.5C 427.732,262.263 427.232,263.263 427,264.5C 426.502,267.817 426.335,271.15 426.5,274.5C 425.732,275.263 425.232,276.263 425,277.5C 424.502,280.817 424.335,284.15 424.5,287.5C 423.732,288.263 423.232,289.263 423,290.5C 422.502,293.817 422.335,297.15 422.5,300.5C 421.732,301.263 421.232,302.263 421,303.5C 420.502,306.817 420.335,310.15 420.5,313.5C 419.732,314.263 419.232,315.263 419,316.5C 418.502,319.817 418.335,323.15 418.5,326.5C 417.778,326.918 417.278,327.584 417,328.5C 416.501,332.152 416.335,335.818 416.5,339.5C 416.768,341.099 416.434,342.432 415.5,343.5C 413.787,344.635 413.12,346.302 413.5,348.5C 412.873,352.42 411.207,355.753 408.5,358.5C 407.094,358.973 406.427,359.973 406.5,361.5C 406.5,362.167 406.167,362.5 405.5,362.5C 404.094,362.973 403.427,363.973 403.5,365.5C 402.167,367.5 400.5,369.167 398.5,370.5C 396.973,370.427 395.973,371.094 395.5,372.5C 394.284,374.451 392.618,375.951 390.5,377C 346.094,403.732 301.427,430.065 256.5,456C 245.653,459.458 234.653,460.291 223.5,458.5C 221.162,456.96 218.495,456.294 215.5,456.5C 214.365,454.787 212.698,454.12 210.5,454.5C 208.181,454.008 206.181,453.008 204.5,451.5C 204.027,450.094 203.027,449.427 201.5,449.5C 200.508,449.672 199.842,449.338 199.5,448.5C 199.027,447.094 198.027,446.427 196.5,446.5C 195.508,446.672 194.842,446.338 194.5,445.5C 194.027,444.094 193.027,443.427 191.5,443.5C 190.508,443.672 189.842,443.338 189.5,442.5C 189.027,441.094 188.027,440.427 186.5,440.5C 185.508,440.672 184.842,440.338 184.5,439.5C 184.027,438.094 183.027,437.427 181.5,437.5C 180.508,437.672 179.842,437.338 179.5,436.5C 179.027,435.094 178.027,434.427 176.5,434.5C 175.508,434.672 174.842,434.338 174.5,433.5C 174.027,432.094 173.027,431.427 171.5,431.5C 170.508,431.672 169.842,431.338 169.5,430.5C 169.027,429.094 168.027,428.427 166.5,428.5C 165.508,428.672 164.842,428.338 164.5,427.5C 164.027,426.094 163.027,425.427 161.5,425.5C 160.508,425.672 159.842,425.338 159.5,424.5C 159.027,423.094 158.027,422.427 156.5,422.5C 155.508,422.672 154.842,422.338 154.5,421.5C 154.027,420.094 153.027,419.427 151.5,419.5C 150.508,419.672 149.842,419.338 149.5,418.5C 149.027,417.094 148.027,416.427 146.5,416.5C 144.847,416.34 143.514,415.674 142.5,414.5C 142.027,413.094 141.027,412.427 139.5,412.5C 138.341,410.75 136.674,409.75 134.5,409.5C 133.341,407.75 131.674,406.75 129.5,406.5C 128.341,404.75 126.674,403.75 124.5,403.5C 123.341,401.75 121.674,400.75 119.5,400.5C 118.341,398.75 116.674,397.75 114.5,397.5C 113.341,395.75 111.674,394.75 109.5,394.5C 108.341,392.75 106.674,391.75 104.5,391.5C 103.508,391.672 102.842,391.338 102.5,390.5C 102.027,389.094 101.027,388.427 99.5,388.5C 98.5084,388.672 97.8417,388.338 97.5,387.5C 97.0269,386.094 96.0269,385.427 94.5,385.5C 93.5084,385.672 92.8417,385.338 92.5,384.5C 92.0269,383.094 91.0269,382.427 89.5,382.5C 88.5084,382.672 87.8417,382.338 87.5,381.5C 87.0269,380.094 86.0269,379.427 84.5,379.5C 83.5084,379.672 82.8417,379.338 82.5,378.5C 82.0269,377.094 81.0269,376.427 79.5,376.5C 79.0269,375.094 78.0269,374.427 76.5,374.5C 75.7377,372.738 74.4044,371.738 72.5,371.5C 62.3877,361.951 55.8877,350.284 53,336.5C 39.4973,244.479 25.8306,152.479 12,60.5C 9.44952,44.9823 13.9495,31.9823 25.5,21.5C 31.5334,16.3252 38.5334,13.1586 46.5,12C 171.833,11.3333 297.167,11.3333 422.5,12C 431.576,13.2937 439.576,16.7937 446.5,22.5 Z M 416.5,43.5 C 418.302,44.4582 420.302,45.1249 422.5,45.5C 425.391,50.0435 426.224,55.0435 425,60.5C 411.172,150.13 397.672,239.797 384.5,329.5C 383.122,336.073 379.789,341.573 374.5,346C 332.001,371.082 289.668,396.415 247.5,422C 237.466,427.039 227.799,426.372 218.5,420C 178.332,395.748 137.999,371.748 97.5,348C 95.0043,346.334 92.671,344.5 90.5,342.5C 89.8897,340.566 88.8897,338.899 87.5,337.5C 87.2041,335.597 86.5375,333.93 85.5,332.5C 85.4249,329.794 85.0916,327.127 84.5,324.5C 84.1916,320.64 83.5249,316.974 82.5,313.5C 82.5,312.833 82.5,312.167 82.5,311.5C 81.6166,303.295 80.2833,295.295 78.5,287.5C 78.5,286.5 78.5,285.5 78.5,284.5C 78.1916,280.64 77.5249,276.974 76.5,273.5C 76.5,272.833 76.5,272.167 76.5,271.5C 76.1916,267.64 75.5249,263.974 74.5,260.5C 74.5,259.833 74.5,259.167 74.5,258.5C 73.6166,250.295 72.2833,242.295 70.5,234.5C 70.5,233.5 70.5,232.5 70.5,231.5C 70.1916,227.64 69.5249,223.974 68.5,220.5C 68.5,219.833 68.5,219.167 68.5,218.5C 67.6166,210.295 66.2833,202.295 64.5,194.5C 64.5,193.5 64.5,192.5 64.5,191.5C 64.1916,187.64 63.5249,183.974 62.5,180.5C 62.5,179.833 62.5,179.167 62.5,178.5C 61.6166,170.295 60.2833,162.295 58.5,154.5C 58.5,153.5 58.5,152.5 58.5,151.5C 58.1916,147.64 57.5249,143.974 56.5,140.5C 56.5,139.833 56.5,139.167 56.5,138.5C 56.1916,134.64 55.5249,130.974 54.5,127.5C 54.5,126.833 54.5,126.167 54.5,125.5C 53.6166,117.295 52.2833,109.295 50.5,101.5C 50.5,100.5 50.5,99.5 50.5,98.5C 50.1916,94.6403 49.5249,90.9736 48.5,87.5C 48.5,86.8333 48.5,86.1667 48.5,85.5C 47.2051,74.7683 45.5384,64.1016 43.5,53.5C 44.3721,51.5504 45.0388,49.5504 45.5,47.5C 47.7682,45.535 50.4349,44.3683 53.5,44C 174.5,43.5 295.5,43.3333 416.5,43.5 Z"/></g>
<g><path style="opacity:1" fill="#23395b" d="M 213.5,78.5 C 213.833,79.5 214.5,80.1667 215.5,80.5C 215.427,82.0269 216.094,83.0269 217.5,83.5C 218.831,174.163 218.831,264.829 217.5,355.5C 216.011,359.153 213.344,361.653 209.5,363C 205.5,363.667 201.5,363.667 197.5,363C 175.283,352.059 153.283,340.892 131.5,329.5C 129.5,327.329 127.666,324.996 126,322.5C 119.554,304.163 113.721,285.663 108.5,267C 112.048,252.393 120.715,248.227 134.5,254.5C 135.08,256.749 136.413,258.415 138.5,259.5C 138.69,262.855 139.69,265.855 141.5,268.5C 142.724,275.167 144.724,281.501 147.5,287.5C 148.414,293.742 150.414,299.575 153.5,305C 164.5,310.5 175.5,316 186.5,321.5C 187.832,250.001 187.832,178.668 186.5,107.5C 157.831,107.667 129.165,107.5 100.5,107C 99.5842,106.722 98.9175,106.222 98.5,105.5C 96.4998,103.329 94.6665,100.996 93,98.5C 89.4283,88.1443 92.595,80.6443 102.5,76C 137.5,75.3333 172.5,75.3333 207.5,76C 209.407,77.122 211.407,77.9553 213.5,78.5 Z"/></g>
<g><path style="opacity:1" fill="#23395b" d="M 373.5,78.5 C 373.833,79.5 374.5,80.1667 375.5,80.5C 375.427,82.0269 376.094,83.0269 377.5,83.5C 378.616,88.8175 378.616,94.1508 377.5,99.5C 372.617,110.267 367.45,120.934 362,131.5C 355.666,138.702 348.166,140.368 339.5,136.5C 330.928,127.687 330.261,118.187 337.5,108C 336.906,107.536 336.239,107.369 335.5,107.5C 318.167,107.5 300.833,107.5 283.5,107.5C 283.5,133.833 283.5,160.167 283.5,186.5C 305.996,187.332 328.663,187.832 351.5,188C 354.862,189.343 357.862,191.176 360.5,193.5C 360.427,195.027 361.094,196.027 362.5,196.5C 363.611,201.416 363.778,206.416 363,211.5C 358.393,244.582 353.56,277.582 348.5,310.5C 346.551,314.479 345.551,318.813 345.5,323.5C 344.797,325.716 343.464,327.549 341.5,329C 318.833,340.333 296.167,351.667 273.5,363C 269.167,363.667 264.833,363.667 260.5,363C 259.584,362.722 258.918,362.222 258.5,361.5C 249.352,352.226 249.352,343.059 258.5,334C 277.833,324.333 297.167,314.667 316.5,305C 317.953,295.547 319.286,286.047 320.5,276.5C 322.19,268.355 323.523,260.022 324.5,251.5C 325.514,242.289 326.848,233.122 328.5,224C 328.492,222.293 328.158,220.793 327.5,219.5C 305.164,219.667 282.831,219.5 260.5,219C 259.584,218.722 258.918,218.222 258.5,217.5C 255.345,214.838 253.178,211.505 252,207.5C 251.333,167.167 251.333,126.833 252,86.5C 253.273,83.4027 255.107,80.7361 257.5,78.5C 259.14,77.6799 260.807,76.8466 262.5,76C 297.5,75.3333 332.5,75.3333 367.5,76C 369.407,77.122 371.407,77.9553 373.5,78.5 Z"/></g>
</svg>
