<?xml version="1.0" encoding="UTF-8"?>
<svg version="1.1" xmlns="http://www.w3.org/2000/svg" width="860" height="581">
<path d="M0 0 C283.8 0 567.6 0 860 0 C860 191.73 860 383.46 860 581 C576.2 581 292.4 581 0 581 C0 389.27 0 197.54 0 0 Z " fill="#2358A1" transform="translate(0,0)"/>
<path d="M0 0 C283.8 0 567.6 0 860 0 C860 191.73 860 383.46 860 581 C576.2 581 292.4 581 0 581 C0 389.27 0 197.54 0 0 Z M39 43 C39 174.67 39 306.34 39 442 C296.73 442 554.46 442 820 442 C820 310.33 820 178.66 820 43 C562.27 43 304.54 43 39 43 Z " fill="#F5F5F6" transform="translate(0,0)"/>
<path d="M0 0 C0 1.98 0 3.96 0 6 C-0.66386719 6.29132813 -1.32773438 6.58265625 -2.01171875 6.8828125 C-9.02858714 10.14027841 -14.11168663 13.50804305 -17 21 C-17.22097346 23.73490535 -17.33317948 26.3298117 -17.3125 29.0625 C-17.30758545 29.82546387 -17.3026709 30.58842773 -17.29760742 31.37451172 C-17.16819945 37.65113017 -16.07589083 43.06888333 -14 49 C-13.41992188 50.8253125 -13.41992188 50.8253125 -12.828125 52.6875 C-0.49382294 91.21015989 21.95711617 127.57488088 40.55078125 163.3515625 C44.53179552 171.01637913 48.48449659 178.69571411 52.4375 186.375 C57.63513422 196.46987463 62.83311168 206.56456867 68.04516602 216.65200806 C68.67717632 217.87520493 69.30901479 219.0984906 69.94067383 220.3218689 C74.08022597 228.33712729 78.25135026 236.33426131 82.56445312 244.2578125 C85 248.78438881 85 248.78438881 85 251 C85.66 251 86.32 251 87 251 C87.10038574 250.31856934 87.20077148 249.63713867 87.30419922 248.93505859 C88.14177806 245.40194532 89.57028175 242.2945658 91.1328125 239.0390625 C91.44773651 238.3714389 91.76266052 237.70381531 92.08712769 237.01596069 C93.09457457 234.88314418 94.10956717 232.75402417 95.125 230.625 C95.78437141 229.23331787 96.44322998 227.84139263 97.1015625 226.44921875 C98.42260051 223.6568197 99.74578852 220.8654541 101.0703125 218.07470703 C105.69129705 208.32799925 110.2168591 198.53715967 114.734375 188.7421875 C115.98311676 186.03672894 117.2319952 183.33133354 118.48095703 180.62597656 C119.33505225 178.77450581 120.18822562 176.92260955 121.04052734 175.0703125 C122.2900205 172.35555218 123.54311215 169.64247806 124.796875 166.9296875 C125.17503357 166.10572479 125.55319214 165.28176208 125.94281006 164.43283081 C127.77707058 160.47237584 129.73009075 156.73293186 132 153 C132.61280502 151.57088812 133.18931277 150.12572077 133.73046875 148.66796875 C136.5681602 141.38855618 139.97300896 134.37080066 143.3125 127.3125 C143.95795422 125.94348755 144.60313782 124.57434747 145.24804688 123.20507812 C146.20972691 121.16334222 147.17176678 119.121783 148.13542175 117.08097839 C149.74378749 113.67385846 151.34516025 110.26372818 152.93286133 106.84692383 C153.24495041 106.17553879 153.55703949 105.50415375 153.87858582 104.81242371 C154.73345669 102.97131874 155.58675392 101.12948333 156.43994141 99.28759766 C157.91680916 96.17531265 159.46762321 93.11565153 161.0625 90.0625 C166.00236801 80.2484537 169.49950834 69.83143969 172.8125 59.375 C173.0194751 58.7243457 173.2264502 58.07369141 173.43969727 57.40332031 C176.78489701 46.55783063 178.32965257 33.74008885 173.31640625 23.20703125 C168.35873671 14.8952114 161.23316722 9.07772241 152 6 C152 4.02 152 2.04 152 0 C155.66664954 -0.02932237 159.3332684 -0.04690637 163 -0.0625 C164.02996094 -0.07087891 165.05992187 -0.07925781 166.12109375 -0.08789062 C167.13300781 -0.09111328 168.14492188 -0.09433594 169.1875 -0.09765625 C170.57001953 -0.10551147 170.57001953 -0.10551147 171.98046875 -0.11352539 C174.967411 -0.00122525 177.87423198 0.35576044 180.8352356 0.74952698 C184.71061789 1.19792622 188.60013964 1.33370913 192.49609375 1.5 C194.28841506 1.58325574 196.08073267 1.66659132 197.87304688 1.75 C200.67335414 1.87657873 203.47372093 2.0015961 206.27416992 2.125 C208.99417744 2.24600477 211.71387518 2.37269006 214.43359375 2.5 C215.2782872 2.53544922 216.12298065 2.57089844 216.99327087 2.60742188 C222.88682547 2.88682547 222.88682547 2.88682547 224 4 C224.09879064 5.39016907 224.1284617 6.78532051 224.13028526 8.17899418 C224.13390961 9.08580089 224.13753396 9.99260759 224.14126813 10.92689329 C224.13966576 12.43878325 224.13966576 12.43878325 224.13803101 13.98121643 C224.14085229 15.0431951 224.14367357 16.10517377 224.14658034 17.19933361 C224.15496994 20.78857663 224.15626838 24.37778897 224.15771484 27.96704102 C224.1623804 30.52920113 224.16752353 33.09136041 224.17311096 35.65351868 C224.18442041 41.19030786 224.19289279 46.72709055 224.19923019 52.26388741 C224.2095605 61.03726833 224.23013106 69.8106114 224.25234985 78.58396912 C224.25983113 81.58805548 224.26724486 84.59214201 224.27463722 87.5962286 C224.27648779 88.34723229 224.27833835 89.09823597 224.280245 89.87199735 C224.30119401 98.43134412 224.32000511 106.99069514 224.33789062 115.55004883 C224.33952881 116.33271018 224.34116699 117.11537152 224.34285481 117.92174988 C224.36902476 130.54752583 224.38772827 143.17330468 224.40448253 155.79909611 C224.42199179 168.78538 224.45093983 181.77160753 224.4893719 194.7578463 C224.51260868 202.75076842 224.52675162 210.74359851 224.52869953 218.73655467 C224.53108692 224.89567144 224.54913287 231.05465739 224.57256889 237.21372795 C224.57968817 239.71761531 224.58189934 242.22152296 224.57846642 244.72541809 C224.56007145 260.712716 225.61586153 276.18833271 228 292 C228.10597024 292.72857905 228.21194047 293.45715809 228.32112193 294.20781529 C230.49417135 309.01580641 238.12475911 321.93569949 248 333 C248.63164062 333.73863281 249.26328125 334.47726562 249.9140625 335.23828125 C252.82154034 338.62209056 255.77918834 341.90802081 259 345 C252.72321224 344.50770292 247.5353077 343.45821102 241.75 341 C241.01910156 340.69239746 240.28820312 340.38479492 239.53515625 340.06787109 C221.84278694 332.30623176 208.07668997 319.13525005 201 301 C196.58519225 284.08638098 195.70106135 266.82464732 195.68115234 249.44506836 C195.67182787 247.55095504 195.66165557 245.65684574 195.65071106 243.76274109 C195.62368057 238.67714157 195.60834273 233.59156931 195.59528303 228.50591731 C195.57953302 223.17013764 195.5527814 217.83441271 195.5272522 212.49867249 C195.48067277 202.41987513 195.44382856 192.34106724 195.41057932 182.26221806 C195.37220971 170.77712314 195.32283898 159.29208348 195.27259517 147.80703533 C195.16958563 124.2047313 195.08022558 100.6023917 195 77 C192.697343 81.87031532 190.39533237 86.74093548 188.09387207 91.61181641 C187.31393086 93.26228712 186.53382538 94.91268023 185.75354004 96.56298828 C180.96480899 106.69151617 176.20181295 116.8308022 171.5 127 C166.19015545 138.47182299 160.80340514 149.90572437 155.39648438 161.33203125 C150.72598594 171.20395513 146.08550799 181.08824254 141.5 191 C136.61096122 201.56487242 131.66325088 212.10075297 126.6875 222.625 C126.33282654 223.37526459 125.97815308 224.12552917 125.61273193 224.89852905 C124.17332555 227.94325102 122.73375813 230.98789679 121.29400635 234.03245544 C117.58449576 241.87719305 113.87918875 249.72390417 110.18032837 257.57366943 C109.48465084 259.04951728 108.78851487 260.52514913 108.09188843 262.00054932 C107.12520782 264.0480009 106.16007818 266.09617679 105.1953125 268.14453125 C104.64891113 269.30315674 104.10250977 270.46178223 103.53955078 271.65551758 C101.96366163 275.07894059 100.48285454 278.53543464 99 282 C97.0214817 286.3118479 94.97855262 290.59245605 92.9375 294.875 C92.39544922 296.02742188 91.85339844 297.17984375 91.29492188 298.3671875 C90.5127832 300.006875 90.5127832 300.006875 89.71484375 301.6796875 C89.24167725 302.67726074 88.76851074 303.67483398 88.28100586 304.70263672 C87 307 87 307 85 308 C77.44693325 293.56620387 70.00634783 279.08518578 62.75 264.5 C58.62332652 256.2058742 54.49268458 247.92081256 50.125 239.75 C45.23042058 230.59350295 40.6270451 221.29346332 36 212 C29.1354763 198.18059181 29.1354763 198.18059181 22 184.5 C16.35430011 173.95463914 11.08217444 163.21770248 5.76953125 152.50195312 C1.96771179 144.84736503 -1.90299421 137.23890955 -5.90625 129.6875 C-11.74510886 118.66892607 -17.28073926 107.50393638 -22.82275391 96.33398438 C-27.91590278 86.07619063 -33.08313356 75.87025959 -38.44580078 65.75048828 C-41.9330813 59.1600134 -45.2888883 52.51076981 -48.59536743 45.828125 C-53.59414418 35.72635655 -58.64782866 25.6619274 -64.03125 15.7578125 C-64.39863281 15.07460937 -64.76601562 14.39140625 -65.14453125 13.6875 C-65.61403198 12.82705078 -65.61403198 12.82705078 -66.09301758 11.94921875 C-67.29342717 9.36938829 -68.13556556 6.70813155 -69 4 C-54.76888357 2.92539272 -40.54644096 1.86729218 -26.28271484 1.34204102 C-21.22803011 1.14632761 -16.23469995 0.74495793 -11.20458984 0.21166992 C-7.45469788 -0.14836954 -3.76288339 -0.06069167 0 0 Z " fill="#F2F4F5" transform="translate(215,63)"/>
<path d="M0 0 C0 1.98 0 3.96 0 6 C-0.67804688 6.15855469 -1.35609375 6.31710938 -2.0546875 6.48046875 C-18.14437844 10.51403393 -29.63822414 18.99663525 -38.33203125 33.171875 C-43.28903783 42.57670924 -44.5410249 53.57950996 -46 64 C-46.16995483 65.19899429 -46.33990967 66.39798859 -46.51501465 67.63331604 C-47.31571483 74.97158015 -47.15640221 82.36143954 -47.16113281 89.73364258 C-47.16576872 91.42350877 -47.17079441 93.11337394 -47.17617798 94.80323792 C-47.18924258 99.37881887 -47.19573705 103.95438518 -47.20018864 108.52998185 C-47.20313321 111.40253977 -47.20724086 114.27509382 -47.21169281 117.14764977 C-47.22536142 126.17439815 -47.23502726 135.20113754 -47.2388947 144.22789556 C-47.24335306 154.57210575 -47.26079949 164.91618232 -47.2898953 175.26035196 C-47.31170755 183.30082226 -47.32160951 191.34125556 -47.32293582 199.38175505 C-47.3239714 204.16127694 -47.32960497 208.9406732 -47.34775543 213.72016335 C-49.06717613 265.68296578 -49.06717613 265.68296578 -26.875 310.6875 C-7.82781802 328.67472075 17.59824818 332.84825549 42.80078125 332.2734375 C66.02262423 331.4111257 88.41234478 324.70558072 109 314 C110.56882024 313.20665506 112.13784343 312.41371138 113.70703125 311.62109375 C122.11109466 307.32775843 130.14196797 302.86699047 137.84765625 297.3984375 C140 296 140 296 142 296 C141.93924482 267.2430032 141.861591 238.48609391 141.76428509 209.72919655 C141.7553343 207.0611637 141.74640724 204.39313081 141.73754883 201.72509766 C141.7342433 200.7304812 141.7342433 200.7304812 141.730871 199.71577148 C141.69786227 189.69870714 141.67341708 179.68165092 141.65356445 169.66455078 C141.63045831 158.01287873 141.59692168 146.36128923 141.55129844 134.70968282 C141.52753497 128.55073253 141.50869641 122.39186314 141.50238609 116.23286819 C143.46204206 68.67659313 143.46204206 68.67659313 128 25 C127.4225 24.113125 126.845 23.22625 126.25 22.3125 C118.4770812 14.32366679 107.80350888 8.58344778 97 6 C97 4.02 97 2.04 97 0 C99.93756119 -0.0269501 102.87487555 -0.04681474 105.8125 -0.0625 C106.64587891 -0.07087891 107.47925781 -0.07925781 108.33789062 -0.08789062 C109.14033203 -0.09111328 109.94277344 -0.09433594 110.76953125 -0.09765625 C111.50792236 -0.10289307 112.24631348 -0.10812988 113.00708008 -0.11352539 C115 0 115 0 118 1 C134.96295464 2.30484266 151.99282102 2.55244266 169 3 C169 118.17 169 233.34 169 352 C159.1 352 149.2 352 139 352 C140 341 140 341 140.5625 337.625 C141.23031625 332.09166539 141.0753365 326.56653003 141 321 C140.4831665 321.32162109 139.96633301 321.64324219 139.43383789 321.97460938 C127.92317438 329.10189225 116.41954762 335.60424148 104 341 C102.81792969 341.53109375 101.63585937 342.0621875 100.41796875 342.609375 C66.43441151 357.14699375 20.99184165 363.02649541 -14.11962891 349.16308594 C-37.21064728 339.41388946 -55.8835708 324.5918757 -65.73022461 301.15161133 C-75.01719438 277.56837056 -75.46430236 251.19182016 -75.34057617 226.19091797 C-75.33972697 223.73391226 -75.34021074 221.27690579 -75.34190369 218.81990051 C-75.34257905 213.5923002 -75.33426881 208.36480274 -75.31719017 203.13723373 C-75.29251565 195.57962029 -75.28496633 188.02206073 -75.2812262 180.46441139 C-75.27470554 168.194342 -75.25486541 155.92433338 -75.22631836 143.65429688 C-75.19866287 131.75488584 -75.17748602 119.85549149 -75.16479492 107.95605469 C-75.16400675 107.2191236 -75.16321858 106.48219251 -75.16240653 105.72293018 C-75.15849062 102.02493303 -75.15469969 98.32693577 -75.15097082 94.62893844 C-75.12001194 64.08591549 -75.06707061 33.54296629 -75 3 C-74.40912598 2.99191315 -73.81825195 2.98382629 -73.20947266 2.97549438 C-66.9783214 2.88846087 -60.74745295 2.78893381 -54.51660156 2.68261719 C-52.20089523 2.64467587 -49.88513691 2.60976703 -47.56933594 2.578125 C-35.65860108 2.41341302 -23.91648933 2.20219584 -12.12304688 0.42773438 C-8.03186928 -0.13259576 -4.1208169 -0.14717203 0 0 Z " fill="#F3F4F5" transform="translate(536,63)"/>
<path d="M0 0 C0 1.98 0 3.96 0 6 C-0.59425781 6.14695312 -1.18851563 6.29390625 -1.80078125 6.4453125 C-15.43955585 10.13605399 -26.86563738 17.39297293 -34.328125 29.63671875 C-44.96192703 48.65412576 -45.15337731 69.83300617 -45.12939453 91.04443359 C-45.1307514 93.06434663 -45.13253294 95.08425943 -45.13470459 97.10417175 C-45.13924549 102.56496909 -45.13750299 108.02574744 -45.1343255 113.48654509 C-45.1317839 119.21796944 -45.13414451 124.94939223 -45.13571167 130.68081665 C-45.13752841 140.30576874 -45.13514036 149.93071314 -45.13037109 159.55566406 C-45.12493253 170.65906496 -45.12669019 181.76244749 -45.1321975 192.86584795 C-45.13674644 202.42203407 -45.13737037 211.97821468 -45.13475883 221.53440154 C-45.13320545 227.23166112 -45.13297638 232.92891209 -45.13629532 238.62617111 C-45.13919984 243.98603226 -45.1371512 249.3458699 -45.13140106 254.70572853 C-45.13008712 256.66437173 -45.13044416 258.62301693 -45.13266373 260.58165932 C-45.14313767 270.76949154 -45.0231752 280.85115603 -44 291 C-43.89305659 292.11383592 -43.89305659 292.11383592 -43.78395271 293.25017357 C-41.84135033 311.10121796 -34.29369311 329.90004587 -20.0625 341.375 C-13.83382155 345.68622253 -7.55518394 348.35700562 0 349 C0 350.98 0 352.96 0 355 C-10.17797478 355.21604192 -20.16953384 354.99083928 -30.3125 354.0625 C-44.50857391 352.87366622 -58.76214203 352.47459527 -73 352 C-73 236.83 -73 121.66 -73 3 C-13 0 -13 0 0 0 Z " fill="#F3F4F5" transform="translate(801,63)"/>  
<path d="M0 0 C6.77709647 0.26254801 13.55400682 0.52956263 20.33081055 0.79956055 C22.6322031 0.89073836 24.93363516 0.98092509 27.23510742 1.07006836 C30.55919308 1.19899823 33.8831164 1.33159114 37.20703125 1.46484375 C38.2220723 1.50343002 39.23711334 1.5420163 40.28291321 1.58177185 C43.19008767 1.70030859 46.09459839 1.84423093 49 2 C50.52591515 2.06927704 50.52591515 2.06927704 52.08265686 2.13995361 C53.55840431 2.2324942 53.55840431 2.2324942 55.06396484 2.3269043 C55.94635834 2.37654831 56.82875183 2.42619232 57.73788452 2.4773407 C60.50487112 3.11664992 61.23843787 3.96289125 62.76953125 6.3046875 C63.49238536 7.80871229 64.17059782 9.33468503 64.8125 10.875 C65.62961031 12.61287382 66.44874206 14.34979816 67.26953125 16.0859375 C67.70088379 17.03307617 68.13223633 17.98021484 68.57666016 18.95605469 C71.19916392 24.56452414 74.12562763 30.01767931 77 35.5 C78.20152689 37.81848932 79.40206135 40.13749324 80.6015625 42.45703125 C83.50018884 48.04770213 86.43006847 53.62112224 89.375 59.1875 C93.31960259 66.6547171 97.13279643 74.17936279 100.88134766 81.74658203 C103.59765025 87.21831336 106.33797068 92.67811319 109.07177734 98.14111328 C110.94821429 101.89202505 112.82349181 105.64329783 114.68359375 109.40234375 C117.2346108 114.55496458 119.87081068 119.65336841 122.5690918 124.72998047 C123.0000415 125.54096191 123.43099121 126.35194336 123.875 127.1875 C124.30530518 127.99719238 124.73561035 128.80688477 125.17895508 129.64111328 C128.36674603 135.68562074 131.34353438 141.80472677 134.13623047 148.04174805 C135.81389859 151.72544522 137.67488451 155.17606281 139.796875 158.625 C143.60378423 164.85854602 146.78420979 171.38580964 150 177.9375 C154.80582643 187.72276921 154.80582643 187.72276921 159.921875 197.34765625 C163.53399259 203.88834005 166.82872235 210.58150444 170.14645386 217.27459717 C175.5104125 228.09151573 180.9102467 238.88004155 186.58911133 249.53588867 C191.76422054 259.26759934 196.62073646 269.16247714 201.50390625 279.04296875 C203.05288167 282.1045207 204.65141557 285.13590275 206.26074219 288.16601562 C211.03159572 297.15131109 215.64009589 306.2073883 220.14746094 315.32763672 C222.9635128 321.00548859 225.89124193 326.55090012 229.171875 331.9765625 C230.21906497 334.53526252 229.82952803 335.39041271 229 338 C228.27365052 339.67722261 227.50805084 341.33771725 226.71484375 342.984375 C226.26689453 343.91894531 225.81894531 344.85351562 225.35742188 345.81640625 C224.65456055 347.26853516 224.65456055 347.26853516 223.9375 348.75 C223.46505859 349.73355469 222.99261719 350.71710938 222.50585938 351.73046875 C221.34054629 354.15526162 220.17181907 356.57834631 219 359 C217.02 359 215.04 359 213 359 C212.74943848 358.49364014 212.49887695 357.98728027 212.24072266 357.46557617 C211.03788443 355.03835229 209.83142044 352.61294527 208.625 350.1875 C208.23183594 349.39279297 207.83867187 348.59808594 207.43359375 347.77929688 C204.49905126 341.88763849 201.45882664 336.05680783 198.3828125 330.23828125 C193.08816827 320.21707612 187.93133229 310.12778546 182.79067993 300.0269165 C180.14356429 294.82622695 177.49200463 289.62780561 174.83984375 284.4296875 C174.06558296 282.91216385 174.06558296 282.91216385 173.27568054 281.36398315 C168.96490874 272.92045295 164.61090055 264.50031694 160.2331543 256.09130859 C154.96423198 245.95907036 149.76368279 235.79213333 144.5625 225.625 C138.56615725 213.90384501 132.55994352 202.18841839 126.5 190.5 C120.46169488 178.85283999 114.47570778 167.17938192 108.5 155.5 C101.85226383 142.50780139 95.1911254 129.52311799 88.46972656 116.56884766 C85.18774942 110.24137555 81.9258897 103.90454901 78.6875 97.5546875 C63.6544028 67.67978696 63.6544028 67.67978696 45 40 C44.54544434 39.41379883 44.09088867 38.82759766 43.62255859 38.22363281 C31.68519691 23.04700763 18.01051255 13.00967807 0 6 C0 4.02 0 2.04 0 0 Z " fill="#F3F4F5" transform="translate(59,63)"/>
<path d="M0 0 C3.63 0 7.26 0 11 0 C11.01458252 1.1552417 11.02916504 2.3104834 11.04418945 3.50073242 C11.10226822 7.79677912 11.1795005 12.09230694 11.26245117 16.38793945 C11.29565549 18.2452755 11.32370141 20.10271137 11.34643555 21.96020508 C11.38006442 24.63405798 11.43238374 27.30699993 11.48828125 29.98046875 C11.49467117 30.80773972 11.5010611 31.63501068 11.50764465 32.48735046 C11.63628977 37.5594894 12.23723318 41.23723318 16 45 C17.93331809 45.15209159 19.87341284 45.22186331 21.8125 45.25 C22.87082031 45.27578125 23.92914063 45.3015625 25.01953125 45.328125 C28.56186297 44.93814353 29.62478145 44.65767697 32 42 C32.63835308 38.85195949 32.6050171 35.72317644 32.609375 32.51953125 C32.62591125 31.59154221 32.64244751 30.66355316 32.65948486 29.70744324 C32.70808427 26.74239565 32.72936222 23.77786134 32.75 20.8125 C32.7781497 18.80270838 32.80807571 16.7929408 32.83984375 14.78320312 C32.91384645 9.85551099 32.96334806 4.9281058 33 0 C36.63 0 40.26 0 44 0 C44.04969113 5.55011716 44.08585685 11.10010282 44.10986328 16.65039062 C44.11987847 18.53583026 44.13349452 20.42125453 44.15087891 22.30664062 C44.17532532 25.02738249 44.18652816 27.74791777 44.1953125 30.46875 C44.20563507 31.30241089 44.21595764 32.13607178 44.22659302 32.99499512 C44.22781494 39.46793431 43.93159385 45.58550769 39.75 50.8125 C33.98849399 55.39551614 29.29666031 56.5580641 22.125 56.5 C21.32433105 56.49500488 20.52366211 56.49000977 19.69873047 56.48486328 C13.72807662 56.30771067 9.25073502 55.49800769 5 51 C-0.22723313 44.5664823 -0.14577581 38.67844306 -0.09765625 30.76171875 C-0.0962413 29.88095169 -0.09482635 29.00018463 -0.09336853 28.09272766 C-0.08778937 25.29094997 -0.07524071 22.48925338 -0.0625 19.6875 C-0.05748231 17.78320428 -0.05291987 15.87890731 -0.04882812 13.97460938 C-0.03782677 9.31637519 -0.02057649 4.65820133 0 0 Z " fill="#2A5CA0" transform="translate(372,468)"/>
<path d="M0 0 C3.96 0 7.92 0 12 0 C14.64991686 6.37942949 16.98943851 12.81016608 19.13232422 19.37451172 C20.71757704 24.21635839 22.45547779 28.98227684 24.30078125 33.73046875 C25 36 25 36 25 40 C25.66 40 26.32 40 27 40 C27.1700354 38.26073242 27.1700354 38.26073242 27.34350586 36.48632812 C27.88636008 32.17004732 29.04390661 28.30308954 30.50390625 24.21875 C30.7466478 23.51979614 30.98938934 22.82084229 31.23948669 22.10070801 C32.0064274 19.89780338 32.78423641 17.69892647 33.5625 15.5 C34.08861824 13.99504584 34.61401556 12.48983944 35.13867188 10.984375 C36.41747499 7.31995124 37.7060308 3.65909443 39 0 C42.96 0 46.92 0 51 0 C49.53179506 4.62459515 48.05645625 9.24683588 46.57495117 13.8671875 C46.07371752 15.43364298 45.5743139 17.00068542 45.0769043 18.56835938 C42.39157615 27.02727824 39.62862295 35.34495827 36.06640625 43.48632812 C34.46839749 47.25306306 33.23472425 51.1008708 32 55 C27.71 55 23.42 55 19 55 C18.60167969 53.85402344 18.20335938 52.70804688 17.79296875 51.52734375 C17.25794062 49.99735102 16.72277715 48.46740562 16.1875 46.9375 C15.92646484 46.18533203 15.66542969 45.43316406 15.39648438 44.65820312 C14.22347981 41.31296787 13.0191262 38.04344455 11.58984375 34.796875 C9.10329475 29.12930597 7.31226024 23.18364836 5.375 17.3125 C4.96765625 16.08982422 4.5603125 14.86714844 4.140625 13.60742188 C1.14084821 4.56339286 1.14084821 4.56339286 0 0 Z " fill="#2B5DA1" transform="translate(58,468)"/>
<path d="M0 0 C1.19367188 -0.01675781 2.38734375 -0.03351563 3.6171875 -0.05078125 C8.40059145 0.44460468 11.51357754 2.04531842 15.2644043 4.99487305 C17.77259649 8.11917018 17.65131783 10.14895879 17.69921875 14.125 C17.71338333 14.77573486 17.72754791 15.42646973 17.74214172 16.09692383 C17.78393201 18.16895152 17.79925251 20.240111 17.8125 22.3125 C17.84163876 24.38448292 17.87628165 26.45625076 17.91499329 28.52807617 C17.94762013 30.40789453 17.9657606 32.28794773 17.9831543 34.16796875 C18.0287271 37.49002861 18.0287271 37.49002861 19.125 41.3125 C15.495 41.3125 11.865 41.3125 8.125 41.3125 C8.125 40.3225 8.125 39.3325 8.125 38.3125 C7.031875 38.9725 5.93875 39.6325 4.8125 40.3125 C-0.32665914 42.85925915 -5.23832589 43.33500643 -10.875 42.3125 C-14.04146368 40.63650067 -16.24913808 38.56422384 -17.875 35.3125 C-18.5268946 31.19371139 -18.93783121 27.12644867 -16.76953125 23.42578125 C-10.89160536 17.66396254 -1.81641666 16.3125 6.125 16.3125 C5.78272428 13.34184491 5.78272428 13.34184491 5.125 10.3125 C2.0417365 8.77086825 -0.48378099 9.01502465 -3.875 9.3125 C-4.33648437 9.98410156 -4.79796875 10.65570313 -5.2734375 11.34765625 C-5.80195313 11.99605469 -6.33046875 12.64445312 -6.875 13.3125 C-9.35546875 13.484375 -9.35546875 13.484375 -12.0625 13.0625 C-12.96355469 12.93359375 -13.86460937 12.8046875 -14.79296875 12.671875 C-15.48003906 12.55328125 -16.16710937 12.4346875 -16.875 12.3125 C-16.45943583 7.46425132 -14.50051755 5.43213138 -10.875 2.3125 C-7.31812975 0.01052555 -4.18179485 0.01348966 0 0 Z " fill="#2C5DA0" transform="translate(287.875,481.6875)"/>
<path d="M0 0 C6.2116715 2.47440138 10.5361371 6.70630847 13.25 12.8125 C14 16 14 16 14 24 C5.09 24 -3.82 24 -13 24 C-10.71183213 30.53576165 -10.71183213 30.53576165 -8 33 C-4.54213985 33.50007794 -4.54213985 33.50007794 -1 33 C-0.54882812 32.32710937 -0.09765625 31.65421875 0.3671875 30.9609375 C0.90601563 30.31382812 1.44484375 29.66671875 2 29 C4.69921875 28.828125 4.69921875 28.828125 7.6875 29.25 C9.17830078 29.44335938 9.17830078 29.44335938 10.69921875 29.640625 C11.45847656 29.75921875 12.21773437 29.8778125 13 30 C11.55003362 35.79986554 9.22317401 38.02198151 4.23046875 41.0859375 C-0.99046144 43.22551309 -7.84768172 42.87227021 -13.23046875 41.3828125 C-18.09569432 38.95556972 -20.6604358 34.70813126 -23 30 C-25.0309276 23.90721719 -25.11355753 16.53748609 -22.4375 10.625 C-17.21070499 1.65139853 -10.01828013 -1.20327521 0 0 Z " fill="#2C5DA0" transform="translate(588,482)"/>
<path d="M0 0 C3.96 0 7.92 0 12 0 C13.33899425 3.76891017 14.67140712 7.53992462 16 11.3125 C16.3815625 12.38435547 16.763125 13.45621094 17.15625 14.56054688 C17.5171875 15.58857422 17.878125 16.61660156 18.25 17.67578125 C18.58515625 18.62364502 18.9203125 19.57150879 19.265625 20.5480957 C20 23 20 23 20 26 C20.66 26 21.32 26 22 26 C22.15855469 25.29617188 22.31710937 24.59234375 22.48046875 23.8671875 C24.42058535 15.6565283 27.04683842 7.89066098 30 0 C33.63 0 37.26 0 41 0 C40.34916113 6.02025952 38.12351894 11.37980322 36 17 C35.33063645 18.8323504 34.66392678 20.66567266 34 22.5 C33.66613281 23.41136719 33.33226562 24.32273437 32.98828125 25.26171875 C32.34297574 27.04969963 31.71454896 28.843888 31.10546875 30.64453125 C29.23358497 36.0849424 27.04667494 41.31531458 24.5625 46.5 C24.00691406 47.6653125 23.45132813 48.830625 22.87890625 50.03125 C20.80666765 53.30547315 19.56665162 54.5413838 16 56 C12.66796875 56.29296875 12.66796875 56.29296875 9.1875 56.1875 C7.44533203 56.14689453 7.44533203 56.14689453 5.66796875 56.10546875 C4.78753906 56.07066406 3.90710938 56.03585937 3 56 C3 53.36 3 50.72 3 48 C4.258125 47.9175 5.51625 47.835 6.8125 47.75 C9.68197513 47.37925366 10.74290589 47.21692316 13 45.3125 C14.79099917 41.17081442 14.30993751 37.85558801 12.79296875 33.66796875 C11.99826172 31.94513672 11.99826172 31.94513672 11.1875 30.1875 C9.08726352 25.52643274 7.18681346 20.89708796 5.6484375 16.01953125 C4.76302762 13.2619595 3.72565191 10.5692779 2.6953125 7.86328125 C1.72584383 5.26532308 0.85697853 2.63685703 0 0 Z " fill="#2E5FA1" transform="translate(760,483)"/>
<path d="M0 0 C3.61501732 1.31201401 6.28927144 3.08336814 8.67700195 6.1628418 C10.34196953 9.73335079 10.37872467 12.85214217 10.29296875 16.70703125 C10.28872391 17.43242599 10.28447906 18.15782074 10.28010559 18.90519714 C10.26339543 21.20801891 10.2257596 23.50994553 10.1875 25.8125 C10.17244316 27.3795446 10.1587565 28.946603 10.14648438 30.51367188 C10.11351731 34.34278957 10.06178992 38.17124334 10 42 C6.37 42 2.74 42 -1 42 C-1.01458252 41.10692139 -1.02916504 40.21384277 -1.04418945 39.29370117 C-1.10527077 35.97782722 -1.17942478 32.66278101 -1.26245117 29.34741211 C-1.29569001 27.91295372 -1.32372535 26.47836487 -1.34643555 25.04370117 C-1.38000271 22.98039193 -1.43231413 20.91827697 -1.48828125 18.85546875 C-1.51446533 17.61434326 -1.54064941 16.37321777 -1.56762695 15.09448242 C-1.75248641 12.04004306 -1.75248641 12.04004306 -3.34838867 10.09887695 C-5.99099129 8.34065753 -7.91592257 8.55941751 -11 9 C-13.97239483 11.2175009 -14.89947737 12.42617584 -15.54589844 16.11621094 C-15.5668457 17.31020508 -15.58779297 18.50419922 -15.609375 19.734375 C-15.64160156 21.02988281 -15.67382812 22.32539063 -15.70703125 23.66015625 C-15.72177469 25.02343302 -15.73609222 26.38671445 -15.75 27.75 C-15.77816814 29.12894376 -15.80809678 30.50785275 -15.83984375 31.88671875 C-15.91056725 35.25787216 -15.96325504 38.6283328 -16 42 C-19.63 42 -23.26 42 -27 42 C-27 28.47 -27 14.94 -27 1 C-23.7 1 -20.4 1 -17 1 C-16.67 2.32 -16.34 3.64 -16 5 C-15.030625 4.175 -14.06125 3.35 -13.0625 2.5 C-8.76991507 -0.54383295 -5.1292633 -0.97872869 0 0 Z " fill="#3060A2" transform="translate(462,482)"/>
<path d="M0 0 C3.63 0 7.26 0 11 0 C11.01981934 0.89831543 11.03963867 1.79663086 11.06005859 2.72216797 C11.13809261 6.05090078 11.22478114 9.37917256 11.31738281 12.70751953 C11.35569674 14.1488374 11.39054543 15.59025168 11.421875 17.03173828 C11.46747446 19.10223886 11.52547444 21.17207433 11.5859375 23.2421875 C11.6173584 24.4885498 11.6487793 25.73491211 11.68115234 27.01904297 C11.69682309 30.11541776 11.69682309 30.11541776 14 32 C18.9222763 32.55618715 18.9222763 32.55618715 23.18847656 30.38378906 C25.54626151 27.28117286 25.53896942 25.35668189 25.609375 21.484375 C25.64160156 20.23398437 25.67382812 18.98359375 25.70703125 17.6953125 C25.72121094 16.39335937 25.73539063 15.09140625 25.75 13.75 C25.77964844 12.43257813 25.80929688 11.11515625 25.83984375 9.7578125 C25.91055388 6.50514657 25.96324786 3.25319807 26 0 C29.63 0 33.26 0 37 0 C37 13.53 37 27.06 37 41 C33.7 41 30.4 41 27 41 C27 39.02 27 37.04 27 35 C26.34 35 25.68 35 25 35 C24.67 35.99 24.34 36.98 24 38 C19.02710068 41.44277645 13.86195447 42.02774526 8 41 C4.13525657 39.00427184 1.51961989 36.06561169 0 32 C-0.22705078 28.60839844 -0.22705078 28.60839844 -0.1953125 24.609375 C-0.1924826 23.90476135 -0.18965271 23.20014771 -0.18673706 22.47418213 C-0.17557801 20.2326124 -0.15048193 17.99144814 -0.125 15.75 C-0.11496464 14.22656829 -0.10583976 12.70313029 -0.09765625 11.1796875 C-0.07565291 7.45299414 -0.04115272 3.72653667 0 0 Z " fill="#295BA0" transform="translate(218,483)"/>
<path d="M0 0 C1.7634375 -0.01160156 1.7634375 -0.01160156 3.5625 -0.0234375 C8.36789004 0.53355089 11.65723847 2.27958928 15.375 5.3125 C17 7.375 17 7.375 17 11.375 C15.39884424 11.6243357 13.79379841 11.84878648 12.1875 12.0625 C11.29417969 12.19011719 10.40085937 12.31773437 9.48046875 12.44921875 C6.36372388 12.35596182 6.12017546 11.49517546 4 9.375 C1.25756437 9.01229516 1.25756437 9.01229516 -1.6875 9.1875 C-2.68136719 9.21457031 -3.67523437 9.24164063 -4.69921875 9.26953125 C-5.83810547 9.32173828 -5.83810547 9.32173828 -7 9.375 C-7 10.695 -7 12.015 -7 13.375 C-6.23816406 13.55675781 -5.47632813 13.73851562 -4.69140625 13.92578125 C15.125 18.75 15.125 18.75 19 24.375 C19.84396305 28.41455131 19.42597223 31.46220236 17.6875 35.1875 C14.72746114 39.02458741 12.67339574 40.83635468 8 42.375 C-5.59982946 43.6716578 -5.59982946 43.6716578 -11.1875 40.75 C-14.22151616 38.18794191 -16.13635379 35.87865488 -18 32.375 C-18 31.385 -18 30.395 -18 29.375 C-14.64726796 28.7287673 -11.41992306 28.2220322 -8 28.375 C-7.38125 29.179375 -6.7625 29.98375 -6.125 30.8125 C-4.24071152 33.68545991 -4.24071152 33.68545991 -1.1015625 33.7109375 C1.94521646 33.68963135 4.96105407 33.59001976 8 33.375 C7.505 30.9 7.505 30.9 7 28.375 C5.35451172 27.99408203 5.35451172 27.99408203 3.67578125 27.60546875 C2.22124786 27.25825755 0.76682658 26.91057642 -0.6875 26.5625 C-1.40873047 26.39685547 -2.12996094 26.23121094 -2.87304688 26.06054688 C-8.05341404 24.80685071 -12.30034539 23.42630728 -15.8125 19.1875 C-17.38560529 15.46172431 -17.71945385 12.36028929 -17 8.375 C-13.16144171 1.73134142 -7.3694263 -0.04848307 0 0 Z " fill="#2E5FA1" transform="translate(669,481.625)"/>
<path d="M0 0 C3.63 0 7.26 0 11 0 C13.97 7.92 16.94 15.84 20 24 C20.721875 22.2675 21.44375 20.535 22.1875 18.75 C24.79166667 12.5 27.39583333 6.25 30 0 C33.63 0 37.26 0 41 0 C38.6376628 7.3910748 35.84706674 14.55866911 32.9375 21.75 C32.49083984 22.85988281 32.04417969 23.96976562 31.58398438 25.11328125 C30.756329 27.16942958 29.92760441 29.22514811 29.09741211 31.28027344 C28.35847242 33.11159449 27.63294712 34.94837901 26.92016602 36.79003906 C26 39 26 39 25 40 C23.31391034 40.07205511 21.62499341 40.08386068 19.9375 40.0625 C19.01839844 40.05347656 18.09929688 40.04445313 17.15234375 40.03515625 C16.44207031 40.02355469 15.73179687 40.01195312 15 40 C12.07290081 32.72751645 9.1590707 25.45378425 6.375 18.125 C4.65121423 13.59518108 2.78706289 9.17843213 0.69921875 4.8046875 C0 3 0 3 0 0 Z " fill="#2B5DA0" transform="translate(513,483)"/>
<path d="M0 0 C0 4.62 0 9.24 0 14 C2.31 14 4.62 14 7 14 C7 16.97 7 19.94 7 23 C4.69 23 2.38 23 0 23 C0 30.59 0 38.18 0 46 C2.64 46 5.28 46 8 46 C8 48.64 8 51.28 8 54 C5.33963926 55.33018037 3.15744618 55.31665139 0.1875 55.4375 C-1.36904297 55.52837891 -1.36904297 55.52837891 -2.95703125 55.62109375 C-6.31546761 54.93561059 -8.03235369 53.94166637 -10.08227539 51.15942383 C-12.15258616 46.28794239 -11.49518917 40.81337249 -11.3125 35.625 C-11.28994141 34.41199219 -11.26738281 33.19898438 -11.24414062 31.94921875 C-11.1853937 28.96487498 -11.10329222 25.98307933 -11 23 C-12.65 23 -14.3 23 -16 23 C-16 20.03 -16 17.06 -16 14 C-14.35 14 -12.7 14 -11 14 C-11.185625 12.80375 -11.37125 11.6075 -11.5625 10.375 C-11.58984375 8.1796875 -11.58984375 8.1796875 -11 6 C-8.06176695 3.16267597 -4.23076837 0 0 0 Z " fill="#2F60A1" transform="translate(744,469)"/>
<path d="M0 0 C0 4.62 0 9.24 0 14 C2.31 14 4.62 14 7 14 C7 16.97 7 19.94 7 23 C4.69 23 2.38 23 0 23 C0.33 30.26 0.66 37.52 1 45 C2.98 45.33 4.96 45.66 7 46 C7.33 48.64 7.66 51.28 8 54 C5.31432703 55.34283649 3.12253147 55.24287519 0.125 55.3125 C-1.44894531 55.36857422 -1.44894531 55.36857422 -3.0546875 55.42578125 C-6.69228932 54.89992104 -7.77861189 53.86714047 -10 51 C-11.0592918 47.82212459 -11.11458939 45.57411057 -11.09765625 42.23828125 C-11.09443359 41.12001953 -11.09121094 40.00175781 -11.08789062 38.84960938 C-11.07951172 37.68236328 -11.07113281 36.51511719 -11.0625 35.3125 C-11.05798828 34.13365234 -11.05347656 32.95480469 -11.04882812 31.74023438 C-11.03703273 28.82677211 -11.0205727 25.91341137 -11 23 C-12.65 23 -14.3 23 -16 23 C-16 20.03 -16 17.06 -16 14 C-14.35 14 -12.7 14 -11 14 C-11.185625 12.80375 -11.37125 11.6075 -11.5625 10.375 C-11.58984375 8.1796875 -11.58984375 8.1796875 -11 6 C-8.06176695 3.16267597 -4.23076837 0 0 0 Z " fill="#2F5FA1" transform="translate(197,469)"/>
<path d="M0 0 C3.63 0 7.26 0 11 0 C11 18.48 11 36.96 11 56 C7.37 56 3.74 56 0 56 C0 37.52 0 19.04 0 0 Z " fill="#3060A1" transform="translate(322,468)"/>
<path d="M0 0 C1.1875 1.625 1.1875 1.625 2 4 C1.25 7.1875 1.25 7.1875 -1 10 C-4.3318534 10.82895229 -7.57507231 10.98714849 -11 11 C-12.03042947 14.44698827 -12.19794703 17.70925282 -12.31640625 21.296875 C-12.35830078 22.50214844 -12.40019531 23.70742188 -12.44335938 24.94921875 C-12.48267578 26.20347656 -12.52199219 27.45773437 -12.5625 28.75 C-12.60568359 30.01972656 -12.64886719 31.28945313 -12.69335938 32.59765625 C-12.79939722 35.73166365 -12.90146058 38.86574933 -13 42 C-16.63 42 -20.26 42 -24 42 C-24 28.47 -24 14.94 -24 1 C-20.7 1 -17.4 1 -14 1 C-13.67 2.32 -13.34 3.64 -13 5 C-12.34 4.175 -11.68 3.35 -11 2.5 C-6.97633382 -0.85305515 -5.09299533 -0.43160977 0 0 Z " fill="#3060A2" transform="translate(172,482)"/>
<path d="M0 0 C1 3 1 3 0.125 6.125 C-2 9 -2 9 -4.13671875 9.50390625 C-5.73503282 9.62487366 -7.33854049 9.69132286 -8.94140625 9.69921875 C-9.62074219 9.79847656 -10.30007813 9.89773438 -11 10 C-13.35709642 13.53564463 -13.30009735 15.22025255 -13.4140625 19.41796875 C-13.47207031 21.29838867 -13.47207031 21.29838867 -13.53125 23.21679688 C-13.57765625 25.18229492 -13.57765625 25.18229492 -13.625 27.1875 C-13.66319338 28.5228116 -13.70224591 29.85809892 -13.7421875 31.19335938 C-13.83659153 34.46209888 -13.92217017 37.73083064 -14 41 C-17.63 41 -21.26 41 -25 41 C-25 27.47 -25 13.94 -25 0 C-21.7 0 -18.4 0 -15 0 C-14.67 0.99 -14.34 1.98 -14 3 C-13.360625 2.319375 -12.72125 1.63875 -12.0625 0.9375 C-7.81661926 -1.74866944 -4.76582912 -0.95524244 0 0 Z " fill="#24589F" transform="translate(642,483)"/>
<path d="M0 0 C3.63 0 7.26 0 11 0 C11 13.53 11 27.06 11 41 C7.37 41 3.74 41 0 41 C0 27.47 0 13.94 0 0 Z " fill="#3161A2" transform="translate(704,483)"/>
<path d="M0 0 C3.63 0 7.26 0 11 0 C11 13.53 11 27.06 11 41 C7.37 41 3.74 41 0 41 C0 27.47 0 13.94 0 0 Z " fill="#3262A3" transform="translate(120,483)"/>
<path d="M0 0 C3.63 0 7.26 0 11 0 C11 13.2 11 26.4 11 40 C7.37 40 3.74 40 0 40 C0 26.8 0 13.6 0 0 Z " fill="#2E5FA1" transform="translate(489,483)"/>
<path d="M0 0 C0.33 0 0.66 0 1 0 C1 64.35 1 128.7 1 195 C0.67 195 0.34 195 0 195 C0 132.63 0 70.26 0 6 C-0.99 6.33 -1.98 6.66 -3 7 C-1.125 1.125 -1.125 1.125 0 0 Z " fill="#2D5995" transform="translate(410,139)"/>
<path d="M0 0 C-0.18796117 7.9968932 -0.18796117 7.9968932 -3.125 11.625 C-6.88059923 13.42115615 -9.02319797 13.05047601 -13 12 C-15 10 -15 10 -15.375 7.5625 C-15 5 -15 5 -13.5 3.3125 C-9.23622825 1.07401983 -4.81005084 0 0 0 Z " fill="#E1E7EE" transform="translate(295,504)"/>
<path d="M0 0 C3.63 0 7.26 0 11 0 C11 13.53 11 27.06 11 41 C7.7 41 4.4 41 1 41 C0.67 38.69 0.34 36.38 0 34 C0.66 34 1.32 34 2 34 C2 35.65 2 37.3 2 39 C4.31 39 6.62 39 9 39 C9 26.46 9 13.92 9 1 C6.36 1 3.72 1 1 1 C1 8.92 1 16.84 1 25 C0.67 25 0.34 25 0 25 C0 16.75 0 8.5 0 0 Z " fill="#5477A6" transform="translate(244,483)"/>
<path d="M0 0 C2.8125 2.1875 2.8125 2.1875 5 5 C5 6.65 5 8.3 5 10 C-0.28 10 -5.56 10 -11 10 C-10 4 -10 4 -7.75 1.625 C-4.68745857 -0.18468357 -3.46594914 -0.77983856 0 0 Z " fill="#E1E8EF" transform="translate(586,490)"/>
<path d="M0 0 C3.63 0 7.26 0 11 0 C11 3.3 11 6.6 11 10 C7.37 10 3.74 10 0 10 C0 6.7 0 3.4 0 0 Z " fill="#3865A1" transform="translate(704,468)"/>
<path d="M0 0 C3.63 0 7.26 0 11 0 C11 3.3 11 6.6 11 10 C7.37 10 3.74 10 0 10 C0 6.7 0 3.4 0 0 Z " fill="#3865A1" transform="translate(489,468)"/>
<path d="M0 0 C-0.556875 0.2475 -1.11375 0.495 -1.6875 0.75 C-4.14724713 1.97628912 -4.14724713 1.97628912 -6.5 4.125 C-9 6 -9 6 -13 6 C-13 4.68 -13 3.36 -13 2 C-15.64 2 -18.28 2 -21 2 C-21 14.87 -21 27.74 -21 41 C-18.03 41 -15.06 41 -12 41 C-12 33.41 -12 25.82 -12 18 C-11.67 18 -11.34 18 -11 18 C-11 25.92 -11 33.84 -11 42 C-14.63 42 -18.26 42 -22 42 C-22 28.47 -22 14.94 -22 1 C-18.7 1 -15.4 1 -12 1 C-11.67 1.99 -11.34 2.98 -11 4 C-10.29875 3.34 -9.5975 2.68 -8.875 2 C-5.56539771 -0.30233203 -3.93774177 -0.36630156 0 0 Z " fill="#6484AE" transform="translate(639,482)"/>
<path d="M0 0 C3.3 0 6.6 0 10 0 C10 2.97 10 5.94 10 9 C6.7 9 3.4 9 0 9 C0 6.03 0 3.06 0 0 Z " fill="#28599B" transform="translate(121,468)"/>
<path d="M0 0 C0.33 0 0.66 0 1 0 C1 12.54 1 25.08 1 38 C0.67 38 0.34 38 0 38 C0 27.44 0 16.88 0 6 C-0.99 6.33 -1.98 6.66 -3 7 C-1.125 1.125 -1.125 1.125 0 0 Z " fill="#3B649A" transform="translate(410,139)"/>
<path d="M0 0 C0.66 0.33 1.32 0.66 2 1 C-2.03523352 5.81123996 -6.04467233 10.13242719 -11 14 C-11 11 -11 11 -8.59375 8.30078125 C-7.5700032 7.29697757 -6.5383946 6.30114351 -5.5 5.3125 C-4.97535156 4.80138672 -4.45070313 4.29027344 -3.91015625 3.76367188 C-2.61339096 2.50227292 -1.30753883 1.25022788 0 0 Z " fill="#3B66A0" transform="translate(780,77)"/>
<path d="M0 0 C0.99 0.33 1.98 0.66 3 1 C1.71451591 2.33929505 0.42141845 3.67128643 -0.875 5 C-1.59429687 5.7425 -2.31359375 6.485 -3.0546875 7.25 C-5 9 -5 9 -7 9 C-7 9.66 -7 10.32 -7 11 C-7.66 10.67 -8.32 10.34 -9 10 C-7.8758824 8.70756532 -6.75067408 7.41607925 -5.625 6.125 C-4.99851562 5.40570313 -4.37203125 4.68640625 -3.7265625 3.9453125 C-2.52573166 2.5923402 -1.2791655 1.2791655 0 0 Z " fill="#34619D" transform="translate(510,80)"/>
<path d="M0 0 C-0.8353125 0.37125 -0.8353125 0.37125 -1.6875 0.75 C-4.14724713 1.97628912 -4.14724713 1.97628912 -6.5 4.125 C-9 6 -9 6 -13 6 C-13 4.35 -13 2.7 -13 1 C-12.01 2.485 -12.01 2.485 -11 4 C-10.29875 3.34 -9.5975 2.68 -8.875 2 C-5.56539771 -0.30233203 -3.93774177 -0.36630156 0 0 Z " fill="#5277A7" transform="translate(639,482)"/>
<path d="M0 0 C3.63 0 7.26 0 11 0 C10.67 1.65 10.34 3.3 10 5 C9.34 5 8.68 5 8 5 C8 3.68 8 2.36 8 1 C5.36 1 2.72 1 0 1 C0 0.67 0 0.34 0 0 Z " fill="#4A6F9F" transform="translate(543,483)"/>
<path d="M0 0 C0.66 0.33 1.32 0.66 2 1 C0.35 2.98 -1.3 4.96 -3 7 C-3.99 6.67 -4.98 6.34 -6 6 C-4.02 4.02 -2.04 2.04 0 0 Z " fill="#426BA2" transform="translate(573,484)"/>
<path d="M0 0 C0.66 0.33 1.32 0.66 2 1 C0.02 3.31 -1.96 5.62 -4 8 C-4.33 7.01 -4.66 6.02 -5 5 C-3.35 3.35 -1.7 1.7 0 0 Z " fill="#3C669F" transform="translate(206,72)"/>
</svg>
